# xmcd
#
# Track frame offsets:
# 150
# 8217
# 24341
# 47996
# 61907
# 76771
# 89236
# 104534
# 117247
# 126065
# 142039
#
# Disc length: 2078 seconds
#
# Revision: 0
# Processed by: cddbd v1.5.1PL2 Copyright (c) Steve Scherf et al.
# Submitted via: Audion 3.0.2 (http://www.panic.com/audion/)
#
DISCID=92081c0b
DTITLE=moov tracks - Tony Gudwein
DYEAR=1900
DGENRE=
TTITLE0=The Eternal moment
TTITLE1=Straggle Then Serrate
TTITLE2=b, ba, bam
TTITLE3=Plagerism
TTITLE4=We Watched the Smile
TTITLE5=Vaudevillle Chanson
TTITLE6=Earth, Wind and Fire
TTITLE7=Under the Same Roof
TTITLE8=M. Crispell/W. Parker/J. Surman
TTITLE9=Where I'm Calling From
TTITLE10=Amnesia
EXTD=
EXTT0=
EXTT1=
EXTT2=
EXTT3=
EXTT4=
EXTT5=
EXTT6=
EXTT7=
EXTT8=
EXTT9=
EXTT10=
PLAYORDER=
